<svg xmlns="http://www.w3.org/2000/svg" width="900" height="430" viewBox="0 0 900 430"><rect width="100%" height="100%" fill="white"/><text x="80" y="35" font-size="24" font-weight="700" fill="#222222">Same-age cohort quality has deteriorated</text><text x="80" y="57" font-size="14" fill="#666666">Bars = average Year-1 revenue; line = full-price repeat within 365 days.</text><rect x="96.0" y="106.52173913043481" width="48" height="243.4782608695652" fill="#13b889"/><text x="120.0" y="378" text-anchor="middle" font-size="15" fill="#666666">2020</text><rect x="232.0" y="195.08049142477327" width="48" height="154.91950857522673" fill="#13b889"/><text x="256.0" y="378" text-anchor="middle" font-size="15" fill="#666666">2021</text><rect x="368.0" y="173.69081732580563" width="48" height="176.30918267419437" fill="#13b889"/><text x="392.0" y="378" text-anchor="middle" font-size="15" fill="#666666">2022</text><rect x="504.0" y="272.44135749872976" width="48" height="77.55864250127021" fill="#13b889"/><text x="528.0" y="378" text-anchor="middle" font-size="15" fill="#666666">2023</text><rect x="640.0" y="277.95761557528715" width="48" height="72.04238442471282" fill="#13b889"/><text x="664.0" y="378" text-anchor="middle" font-size="15" fill="#666666">2024</text><rect x="776.0" y="134.39893714713472" width="48" height="215.60106285286528" fill="#13b889"/><text x="800.0" y="378" text-anchor="middle" font-size="15" fill="#666666">2025</text><polyline points="120.0,134.6 256.0,191.5 392.0,241.6 528.0,250.6 664.0,277.0 800.0,269.2" fill="none" stroke="#c17700" stroke-width="4"/><circle cx="120.0" cy="134.61538461538464" r="5" fill="#c17700"/><circle cx="256.0" cy="191.51642210285004" r="5" fill="#c17700"/><circle cx="392.0" cy="241.5968201824636" r="5" fill="#c17700"/><circle cx="528.0" cy="250.60754751794678" r="5" fill="#c17700"/><circle cx="664.0" cy="277.02096401643735" r="5" fill="#c17700"/><circle cx="800.0" cy="269.20178158962705" r="5" fill="#c17700"/><text x="80" y="410" font-size="14" fill="#222222">2022 to 2024: average Year-1 revenue fell from SGD 238 to SGD 97.</text></svg>