<svg xmlns="http://www.w3.org/2000/svg" width="900" height="430" viewBox="0 0 900 430"><rect width="100%" height="100%" fill="white"/><text x="80" y="35" font-size="24" font-weight="700" fill="#222222">Deep discounts fail the full-price repeat test</text><text x="80" y="57" font-size="14" fill="#666666">2024 cohort. Bars = customers; line = full-price repeat rate.</text><rect x="97.0" y="208.97920604914933" width="56" height="141.02079395085067" fill="#1676bf" opacity="0.82"/><text x="125.0" y="380" text-anchor="middle" font-size="14" fill="#666666">Full price</text><rect x="264.5" y="245.27410207939508" width="56" height="104.72589792060492" fill="#1676bf" opacity="0.82"/><text x="292.5" y="380" text-anchor="middle" font-size="14" fill="#666666">1-10%</text><rect x="432.0" y="215.406427221172" width="56" height="134.593572778828" fill="#1676bf" opacity="0.82"/><text x="460.0" y="380" text-anchor="middle" font-size="14" fill="#666666">11-20%</text><rect x="599.5" y="212.00378071833646" width="56" height="137.99621928166354" fill="#1676bf" opacity="0.82"/><text x="627.5" y="380" text-anchor="middle" font-size="14" fill="#666666">21-30%</text><rect x="767.0" y="106.52173913043475" width="56" height="243.47826086956525" fill="#1676bf" opacity="0.82"/><text x="795.0" y="380" text-anchor="middle" font-size="14" fill="#666666">31%+</text><polyline points="125.0,126.0 292.5,266.1 460.0,278.6 627.5,276.4 795.0,304.9" fill="none" stroke="#e23b2e" stroke-width="4"/><circle cx="125.0" cy="125.99999999999997" r="6" fill="#e23b2e"/><circle cx="292.5" cy="266.0676816826244" r="6" fill="#e23b2e"/><circle cx="460.0" cy="278.5705911089399" r="6" fill="#e23b2e"/><circle cx="627.5" cy="276.3508278737344" r="6" fill="#e23b2e"/><circle cx="795.0" cy="304.8733459357278" r="6" fill="#e23b2e"/><text x="80" y="410" font-size="14" fill="#222222">Full price: 30.8% full-price repeat vs 31%+: 6.2%.</text></svg>